<svg width="1280" height="720" viewBox="0 0 1280 720" fill="none" xmlns="http://www.w3.org/2000/svg">
<path d="M591.363 656.235C588.744 651.984 586.093 647.734 583.407 643.483C580.722 639.199 578.07 635.05 575.452 631.038V656.235H568V619.765H575.855C578.574 623.88 581.242 628.011 583.86 632.16C586.512 636.274 589.147 640.457 591.765 644.707V619.765H599.217V656.235H591.363Z" fill="white"/>
<path d="M606.894 619.765H631.666V626.294H614.648V634.2H629.753V640.729H614.648V649.706H632.623V656.235H606.894V619.765Z" fill="white"/>
<path d="M665.709 656.235C664.568 652.12 663.443 648.006 662.336 643.891C661.261 639.777 660.204 635.662 659.164 631.548C658.157 635.662 657.116 639.777 656.042 643.891C654.968 648.006 653.86 652.12 652.719 656.235H644.512C642.8 650.284 641.155 644.265 639.577 638.179C638 632.092 636.506 625.954 635.096 619.765H643.555C644.394 624.492 645.284 629.218 646.223 633.945C647.163 638.672 648.154 643.313 649.194 647.87C651.443 638.995 653.575 630.136 655.589 621.295H663.141C664.148 625.648 665.172 630 666.213 634.353C667.287 638.672 668.378 642.99 669.485 647.309C670.492 642.82 671.466 638.264 672.406 633.639C673.346 629.014 674.218 624.39 675.024 619.765H683.332C681.922 625.954 680.428 632.092 678.851 638.179C677.273 644.265 675.628 650.284 673.916 656.235H665.709Z" fill="white"/>
<path d="M698.147 657C696.166 657 694.202 656.779 692.256 656.337C690.342 655.895 688.496 655.198 686.717 654.246V647.207C690.309 649.417 694.119 650.522 698.147 650.522C700.429 650.522 702.158 650.131 703.333 649.349C704.541 648.567 705.145 647.479 705.145 646.085C705.145 645.03 704.843 644.214 704.239 643.636C703.668 643.024 702.896 642.548 701.923 642.208C700.949 641.834 699.859 641.494 698.65 641.188C696.67 640.712 694.924 640.168 693.414 639.556C691.903 638.944 690.628 638.23 689.587 637.413C688.546 636.563 687.758 635.56 687.221 634.404C686.683 633.214 686.415 631.803 686.415 630.17C686.415 627.858 686.986 625.869 688.127 624.203C689.302 622.536 690.946 621.261 693.061 620.377C695.176 619.459 697.693 619 700.614 619C702.527 619 704.407 619.221 706.253 619.663C708.099 620.105 709.761 620.7 711.238 621.448V628.385C709.761 627.467 708.082 626.753 706.203 626.243C704.357 625.733 702.494 625.478 700.614 625.478C698.566 625.478 696.972 625.835 695.83 626.549C694.723 627.263 694.169 628.283 694.169 629.609C694.169 630.562 694.437 631.327 694.975 631.905C695.512 632.449 696.267 632.908 697.24 633.282C698.247 633.622 699.422 633.962 700.765 634.302C702.477 634.744 704.071 635.237 705.548 635.781C707.025 636.291 708.317 636.954 709.425 637.77C710.566 638.587 711.439 639.624 712.043 640.882C712.681 642.14 713 643.687 713 645.523C713 647.938 712.413 650.012 711.238 651.746C710.063 653.447 708.368 654.756 706.152 655.674C703.937 656.558 701.268 657 698.147 657Z" fill="white"/>
<path d="M545.978 62.0624H559.481C563.456 62.0624 566.552 62.8574 568.709 64.4514C570.89 66.0454 571.985 68.3306 571.985 71.3228C571.985 73.0327 571.594 74.5148 570.81 75.7573C570.027 77.0157 568.873 78.0105 567.339 78.7496C569.456 79.4527 571.078 80.5673 572.213 82.0934C573.339 83.6195 573.899 85.4732 573.899 87.6464C573.899 89.7918 573.351 91.6374 572.261 93.1595C571.17 94.7016 569.612 95.8921 567.587 96.7311C565.565 97.57 563.152 97.9895 560.316 97.9895H545.974L545.978 62.0624ZM528 112H591.92V48.0799H528V112ZM558.801 68.0549C562.681 68.0549 564.634 69.4811 564.634 72.3296C564.634 73.8037 564.139 74.9543 563.144 75.7733C562.149 76.5962 560.707 77.0037 558.829 77.0037H553.316V68.0549H558.801ZM559.728 82.6367H553.256V92.3446H559.608C561.79 92.3446 563.472 91.9331 564.642 91.1141C565.817 90.2911 566.404 89.1126 566.404 87.5705C566.404 84.2866 564.171 82.6567 559.692 82.6567L559.728 82.6367Z" fill="white"/>
<path d="M625.878 62.0624H639.381C643.356 62.0624 646.452 62.8574 648.609 64.4514C650.791 66.0454 651.885 68.3306 651.885 71.3228C651.885 73.0327 651.494 74.5148 650.711 75.7573C649.928 77.0157 648.769 78.0105 647.239 78.7496C649.356 79.4527 650.978 80.5673 652.113 82.0934C653.239 83.6195 653.799 85.4732 653.799 87.6464C653.799 89.7918 653.251 91.6374 652.161 93.1595C651.07 94.7016 649.512 95.8921 647.487 96.7311C645.465 97.57 643.052 97.9895 640.216 97.9895H625.874L625.878 62.0624ZM607.9 112H671.82V48.0799H607.9V112ZM638.702 68.0549C642.581 68.0549 644.534 69.4811 644.534 72.3296C644.534 73.8037 644.039 74.9543 643.044 75.7733C642.049 76.5962 640.607 77.0037 638.73 77.0037H633.216V68.0549H638.702ZM639.628 82.6367H633.157V92.3446H639.509C641.69 92.3446 643.372 91.9331 644.542 91.1141C645.717 90.2911 646.304 89.1126 646.304 87.5705C646.304 84.2866 644.071 82.6567 639.593 82.6567L639.628 82.6367Z" fill="white"/>
<path d="M728.549 97.618C730.511 97.1426 732.237 96.4914 733.743 95.6724V88.8409C730.599 90.7785 727.151 91.7493 723.436 91.7493C720.999 91.7493 718.921 91.2899 717.204 90.371C715.494 89.4522 714.191 88.1139 713.296 86.3361C712.398 84.5783 711.95 82.4489 711.95 79.9441C711.95 77.4472 712.414 75.3099 713.344 73.592C714.275 71.8502 715.61 70.5198 717.339 69.601C719.081 68.6821 721.187 68.2227 723.651 68.2227C725.445 68.2227 727.155 68.4616 728.765 68.9378C730.387 69.4132 731.893 70.1124 733.279 71.0312V64.04C731.757 63.2529 730.107 62.6537 728.326 62.2422C726.548 61.8307 724.662 61.627 722.653 61.627C719.776 61.627 717.18 62.0544 714.862 62.9094C712.545 63.7643 710.548 64.9948 708.91 66.6047C707.252 68.2147 705.982 70.1443 705.103 72.3975C704.224 74.6467 703.784 77.1516 703.784 79.9481C703.784 82.8085 704.208 85.3813 705.055 87.6584C705.902 89.9436 707.116 91.8532 708.71 93.4512C710.3 95.0292 712.246 96.2357 714.543 97.0747C716.844 97.9136 719.417 98.3331 722.293 98.3331C724.458 98.3331 726.528 98.0942 728.485 97.618H728.549ZM751.72 111.92H687.8V48H751.72V111.92Z" fill="white"/>
</svg>